# xmcd
#
# Track frame offsets:
#	150
#	29702
#	42317
#	62190
#	77150
#	92790
#	107487
#	123462
#	151195
#	163560
#	179745
#	202797
#	218310
#	242790
#	257215
#	289967
#	306045
#
# Disc length: 4284 seconds
#
# Revision: 2
# Processed by: cddbd v1.4PL0 Copyright (c) Steve Scherf et al.
# Submitted via: audiograbber 1.82.00
#
DISCID=ed10ba11
DTITLE=Blues - Grooves From The Blues 70's
DYEAR=1997
DGENRE=Blues
TTITLE0=John Lee Hooker - House Rent Boogie
TTITLE1=Muddy Waters - Can't Get No Grindin'
TTITLE2=Chuck Berry - Bio
TTITLE3=BB King - Don't Make Me Pay For His Mistakes
TTITLE4=Johnny Littlejohn - Chips Flying Everywhere
TTITLE5=Etta James - W.O.M.A.N.
TTITLE6=John Lee Hooker - Doin' The Shoot
TTITLE7=BB King - Don't You Lie To Me
TTITLE8=Brownie McGhee and Sonny Terry - When I Was Drinkin'
TTITLE9=Bo Diddley - I Said Shut Up, Woman
TTITLE10=Muddy Waters - Who's Gonna Be Your Sweet Man When I'm Gone?
TTITLE11=Homesick James - 12 Year Old Boy
TTITLE12=John Lee Hooker - Bluebird
TTITLE13=Sunnyland Slim - Everytime I Gets To Drinkin'
TTITLE14=Bobby Bland and BB King - I'm Sorry - Live
TTITLE15=Snooky Prior - Keep Your Big Mouth Out Of My Business
TTITLE16=Gatemouth Brown and Roy Clark - Caldonia
EXTD=Universal Music - UMD 80385
EXTT0=
EXTT1=
EXTT2=
EXTT3=
EXTT4=
EXTT5=
EXTT6=
EXTT7=
EXTT8=
EXTT9=
EXTT10=
EXTT11=
EXTT12=
EXTT13=
EXTT14=
EXTT15=
EXTT16=
PLAYORDER=
